<svg width="108" height="24" fill="none" xmlns="http://www.w3.org/2000/svg"><path d="M1.08 11.92c0-2.464.616-4.328 1.848-5.592C4.176 5.064 5.96 4.432 8.28 4.432c.736 0 1.376.064 1.92.192s1.112.296 1.704.504c.624.224 1.08.336 1.368.336-.064.32-.096.872-.096 1.656 0 .224.016.528.048.912.032.256.048.448.048.576h-.96c.016-.08.024-.2.024-.36 0-1.008-.36-1.792-1.08-2.352-.704-.576-1.736-.864-3.096-.864-1.392 0-2.512.584-3.36 1.752-.848 1.168-1.272 2.88-1.272 5.136 0 4.448 1.584 6.672 4.752 6.672.72 0 1.304-.072 1.752-.216.448-.16.888-.456 1.32-.888v-3.84c0-.352-.152-.528-.456-.528l-1.416.048v-.696h5.544v.696l-.984-.048a.413.413 0 0 0-.336.144.543.543 0 0 0-.12.36v4.536a1.43 1.43 0 0 0-.312-.024c-.304 0-.8.128-1.488.384-.704.24-1.32.416-1.848.528-.512.128-1.104.192-1.776.192-2.24 0-3.984-.616-5.232-1.848C1.696 16.144 1.08 14.32 1.08 11.92Zm21.324-3.24c.624 0 1.104.176 1.44.528.352.352.528.8.528 1.344 0 .368-.096.648-.288.84-.176.192-.416.288-.72.288-.224 0-.432-.056-.624-.168-.176-.128-.264-.32-.264-.576a2.1 2.1 0 0 1 .096-.552c.064-.224.096-.4.096-.528a.46.46 0 0 0-.144-.336c-.08-.112-.216-.168-.408-.168-.496 0-.928.24-1.296.72-.368.464-.656 1.048-.864 1.752a8.32 8.32 0 0 0-.36 1.992v4.152c0 .304.104.456.312.456l1.464-.048V19h-4.92v-.624l.768.048c.208 0 .312-.152.312-.456V9.976c0-.32-.104-.48-.312-.48l-.864.048V8.92h3.384a3.07 3.07 0 0 0-.096.48 4.098 4.098 0 0 0-.048.624V11.2c.368-.896.776-1.536 1.224-1.92.464-.4.992-.6 1.584-.6Zm7.752 0c1.264 0 2.28.408 3.048 1.224.784.8 1.192 1.904 1.224 3.312v.696h-6.912c0 1.456.248 2.576.744 3.36.512.768 1.272 1.16 2.28 1.176.8 0 1.472-.2 2.016-.6.56-.4.968-.896 1.224-1.488l.552.408c-.32.768-.864 1.376-1.632 1.824a4.921 4.921 0 0 1-2.496.648c-3.248 0-4.872-1.752-4.872-5.256 0-1.744.408-3.064 1.224-3.96.816-.896 2.016-1.344 3.6-1.344Zm0 .648c-.896 0-1.56.368-1.992 1.104-.416.736-.624 1.696-.624 2.88h4.368c.16 0 .28-.056.36-.168.08-.112.12-.32.12-.624 0-1.088-.176-1.888-.528-2.4-.336-.528-.904-.792-1.704-.792Zm10.781-.648c1.264 0 2.28.408 3.048 1.224.784.8 1.192 1.904 1.224 3.312v.696h-6.912c0 1.456.248 2.576.744 3.36.512.768 1.272 1.16 2.28 1.176.8 0 1.472-.2 2.016-.6.56-.4.968-.896 1.224-1.488l.552.408c-.32.768-.864 1.376-1.632 1.824a4.921 4.921 0 0 1-2.496.648c-3.248 0-4.872-1.752-4.872-5.256 0-1.744.408-3.064 1.224-3.96.816-.896 2.016-1.344 3.6-1.344Zm0 .648c-.896 0-1.56.368-1.992 1.104-.416.736-.624 1.696-.624 2.88h4.368c.16 0 .28-.056.36-.168.08-.112.12-.32.12-.624 0-1.088-.176-1.888-.528-2.4-.336-.528-.904-.792-1.704-.792Zm17.238 9.048V19h-4.68v-.624l1.104.048c.208-.048.312-.2.312-.456V12.52c0-.768-.04-1.36-.12-1.776-.064-.416-.208-.736-.432-.96-.224-.224-.576-.336-1.056-.336-.912 0-1.656.392-2.232 1.176-.56.768-.864 1.808-.912 3.12v4.224c0 .304.104.456.312.456l1.104-.048V19h-4.68v-.624l.888.048c.208-.048.312-.2.312-.456V9.976c0-.272-.104-.432-.312-.48l-.888.048V8.92h3.384c-.08.24-.12.52-.12.84v1.32c.336-.752.816-1.336 1.44-1.752.624-.432 1.344-.648 2.16-.648 1.136 0 1.952.272 2.448.816.512.528.768 1.392.768 2.592v5.88c0 .304.104.456.312.456l.888-.048Zm1.665-2.784.624-.048c0 .592.16 1.12.48 1.584.32.464.744.824 1.272 1.08a3.908 3.908 0 0 0 1.728.384c.64 0 1.136-.16 1.488-.48.352-.336.528-.784.528-1.344 0-.448-.128-.816-.384-1.104-.256-.288-.688-.52-1.296-.696l-2.304-.648c-.64-.192-1.144-.512-1.512-.96-.368-.464-.552-1.032-.552-1.704 0-.88.328-1.592.984-2.136.656-.56 1.552-.84 2.688-.84.32 0 .6.024.84.072.256.048.568.128.936.24.496.144.864.216 1.104.216.24 0 .464-.064.672-.192l-.144 2.736h-.528c0-.64-.256-1.2-.768-1.68-.496-.496-1.176-.744-2.04-.744-.608 0-1.088.16-1.44.48-.336.32-.504.728-.504 1.224 0 .784.496 1.312 1.488 1.584l2.304.648c.816.224 1.392.56 1.728 1.008.336.432.504 1 .504 1.704 0 1.04-.368 1.848-1.104 2.424-.736.56-1.696.84-2.88.84-.336 0-.688-.04-1.056-.12-.352-.064-.896-.2-1.632-.408a2.542 2.542 0 0 0-.648-.096c-.32 0-.552.048-.696.144l.12-3.168ZM72.635 8.92h2.64v.6h-2.64v7.368c0 .608.072 1.024.216 1.248.144.208.4.312.768.312.24 0 .488-.088.744-.264.256-.192.424-.424.504-.696l.504.312c-.32.896-1.168 1.344-2.544 1.344-.816 0-1.4-.192-1.752-.576-.336-.384-.504-1.008-.504-1.872V9.52h-1.44v-.6c.64 0 1.128-.056 1.464-.168.336-.128.6-.36.792-.696.208-.336.4-.864.576-1.584h.672V8.92Zm4.26 5.016c0-1.632.408-2.912 1.224-3.84.816-.944 2.016-1.416 3.6-1.416s2.784.472 3.6 1.416c.816.928 1.224 2.208 1.224 3.84 0 1.664-.408 2.968-1.224 3.912-.816.928-2.016 1.392-3.6 1.392s-2.784-.464-3.6-1.392c-.816-.944-1.224-2.248-1.224-3.912Zm2.184.048c0 1.616.2 2.792.6 3.528.416.72 1.096 1.08 2.04 1.08s1.616-.36 2.016-1.08c.416-.736.624-1.912.624-3.528 0-1.632-.208-2.816-.624-3.552-.4-.736-1.072-1.104-2.016-1.104s-1.624.368-2.04 1.104c-.4.736-.6 1.92-.6 3.552ZM94.263 8.68c.624 0 1.104.176 1.44.528.352.352.528.8.528 1.344 0 .368-.096.648-.288.84-.176.192-.416.288-.72.288-.224 0-.432-.056-.624-.168-.176-.128-.264-.32-.264-.576a2.1 2.1 0 0 1 .096-.552c.064-.224.096-.4.096-.528a.46.46 0 0 0-.144-.336c-.08-.112-.216-.168-.408-.168-.496 0-.928.24-1.296.72-.368.464-.656 1.048-.864 1.752a8.32 8.32 0 0 0-.36 1.992v4.152c0 .304.104.456.312.456l1.464-.048V19h-4.92v-.624l.768.048c.208 0 .312-.152.312-.456V9.976c0-.32-.104-.48-.312-.48l-.864.048V8.92h3.384a3.07 3.07 0 0 0-.096.48 4.098 4.098 0 0 0-.048.624V11.2c.368-.896.776-1.536 1.224-1.92.464-.4.992-.6 1.584-.6Zm7.753 0c1.264 0 2.28.408 3.048 1.224.784.8 1.192 1.904 1.224 3.312v.696h-6.912c0 1.456.248 2.576.744 3.36.512.768 1.272 1.16 2.28 1.176.8 0 1.472-.2 2.016-.6.56-.4.968-.896 1.224-1.488l.552.408c-.32.768-.864 1.376-1.632 1.824a4.921 4.921 0 0 1-2.496.648c-3.248 0-4.872-1.752-4.872-5.256 0-1.744.408-3.064 1.224-3.96.816-.896 2.016-1.344 3.6-1.344Zm0 .648c-.896 0-1.56.368-1.992 1.104-.416.736-.624 1.696-.624 2.88h4.368c.16 0 .28-.056.36-.168.08-.112.12-.32.12-.624 0-1.088-.176-1.888-.528-2.4-.336-.528-.904-.792-1.704-.792Z" fill="#000"/></svg>